<svg xmlns="http://www.w3.org/2000/svg" xmlns:xlink="http://www.w3.org/1999/xlink" viewBox="0 0 480.89 127.64"><defs><style>.cls-1{fill:url(#linear-gradient);}.cls-2{font-size:45px;fill:#006ca3;font-family:NirmalaUI-Bold, Nirmala UI;font-weight:700;}.cls-3{letter-spacing:-0.07em;}.cls-4{letter-spacing:-0.04em;}.cls-5{letter-spacing:0em;}.cls-6{fill:url(#linear-gradient-2);}</style><linearGradient id="linear-gradient" x1="292.55" y1="-1.59" x2="348.34" y2="-88.93" gradientTransform="translate(243.47 -229.34) rotate(66.39)" gradientUnits="userSpaceOnUse"><stop offset="0.01" stop-color="#2b3990"/><stop offset="0.77" stop-color="#00aeef"/></linearGradient><linearGradient id="linear-gradient-2" x1="392.5" y1="-297.05" x2="448.29" y2="-384.39" gradientTransform="translate(548.18 309.32) rotate(-113.61)" xlink:href="#linear-gradient"/></defs><g id="Layer_2" data-name="Layer 2"><g id="Layer_1-2" data-name="Layer 1"><path class="cls-1" d="M399.3,78.54l19.84-29.27a7.68,7.68,0,0,0-4.38-12.05l-96.17-24c-11.77-2.93-9.7-14.48,2.35-13.15l153,10.78a7.68,7.68,0,0,1,4.76,13l-73.59,62C398.3,92.8,393.5,86.28,399.3,78.54Z"/><text class="cls-2" transform="translate(96.22 69.07)">PRICEN<tspan class="cls-3" x="158.86" y="0">A</tspan><tspan class="cls-4" x="187.27" y="0">T</tspan><tspan class="cls-5" x="211.62" y="0">OR</tspan></text><path class="cls-6" d="M81.59,28.21,61.75,57.47a7.67,7.67,0,0,0,4.38,12l96.17,24C174.07,96.42,172,108,160,106.64L7,95.86a7.69,7.69,0,0,1-4.75-13l73.58-62C82.59,13.94,87.39,20.47,81.59,28.21Z"/></g></g></svg>